<?xml version="1.0" standalone="no"?>
<!DOCTYPE svg PUBLIC "-//W3C//DTD SVG 20010904//EN"
 "http://www.w3.org/TR/2001/REC-SVG-20010904/DTD/svg10.dtd">
<svg version="1.0" xmlns="http://www.w3.org/2000/svg"
 width="700.000000pt" height="700.000000pt" viewBox="0 0 700.000000 700.000000"
 preserveAspectRatio="xMidYMid meet">
<metadata>
Created by potrace 1.11, written by Peter Selinger 2001-2013
</metadata>
<g transform="translate(0.000000,700.000000) scale(0.100000,-0.100000)"
fill="#000000" stroke="none">
<path d="M3401 6984 c-87 -37 -115 -113 -96 -261 10 -80 -4 -124 -137 -417
-140 -309 -207 -442 -242 -481 -26 -28 -45 -36 -119 -53 -79 -18 -92 -19 -140
-6 -89 23 -485 198 -878 387 -191 91 -182 83 -196 180 -30 219 -287 322 -452
181 -138 -119 -153 -310 -34 -429 54 -54 108 -77 189 -83 87 -5 152 14 218 64
l46 35 257 -117 c142 -64 292 -132 333 -151 41 -20 134 -62 205 -95 72 -33
150 -71 174 -85 l43 -25 -7 -52 c-15 -98 -13 -144 6 -218 l19 -73 -289 -289
-289 -289 -33 21 c-107 65 -276 84 -397 43 -87 -30 -135 -62 -220 -147 -40
-41 -77 -74 -83 -74 -22 0 -218 89 -474 215 -336 166 -335 165 -335 207 0 93
-56 164 -151 192 -61 18 -96 20 -159 5 -99 -22 -150 -87 -158 -200 -6 -90 14
-145 74 -197 75 -67 182 -79 278 -32 52 25 78 25 147 1 53 -18 387 -168 603
-270 59 -28 112 -51 117 -51 10 0 15 -18 30 -115 13 -89 48 -190 98 -284 l39
-74 -121 -181 c-140 -210 -241 -349 -286 -391 -18 -16 -60 -41 -93 -55 -77
-31 -116 -81 -122 -154 -9 -112 55 -186 161 -186 62 1 124 29 154 71 21 29 24
46 24 119 1 78 3 90 35 145 89 157 334 506 369 524 11 7 78 11 158 10 167 0
213 9 317 66 78 42 82 43 114 29 59 -24 344 -227 408 -289 28 -27 44 -67 49
-121 13 -142 29 -194 76 -245 60 -65 156 -101 254 -94 104 7 167 38 225 113
96 123 99 125 285 187 164 56 872 275 886 275 4 0 25 -16 46 -36 96 -92 164
-144 205 -155 24 -6 86 -9 143 -7 89 3 108 7 163 35 l62 31 107 -102 c210
-199 361 -351 375 -381 9 -16 19 -46 23 -65 23 -116 109 -183 228 -175 242 15
246 374 5 410 -18 3 -59 -1 -91 -9 -69 -16 -85 -10 -179 74 -110 97 -310 294
-338 332 l-28 38 25 82 c63 215 -12 383 -221 493 -42 22 -76 42 -77 45 -2 13
-7 366 -10 768 l-4 443 25 20 c14 11 44 33 67 50 l42 29 398 -238 c424 -253
516 -315 576 -384 50 -57 440 -608 586 -828 118 -179 136 -212 165 -312 15
-52 20 -58 67 -81 53 -27 87 -27 127 -1 34 22 62 74 62 116 0 33 -9 46 -93
130 -135 136 -650 829 -771 1039 l-27 47 83 74 c214 191 417 361 545 455 l82
61 55 -13 c90 -21 159 -1 224 63 95 95 96 226 2 323 -25 26 -56 52 -69 59 -33
17 -139 15 -182 -3 -80 -35 -135 -120 -142 -218 -7 -99 -5 -97 -458 -487
l-255 -220 -75 46 c-41 24 -220 131 -399 235 -179 105 -344 205 -367 221 -49
37 -63 62 -63 119 0 57 -39 136 -88 178 -22 19 -68 45 -102 58 l-62 25 -92
-19 c-77 -15 -96 -16 -117 -5 -61 32 -507 395 -653 531 -107 99 -126 120 -132
148 -9 41 -44 116 -69 145 -39 46 -136 60 -204 30z m203 -379 c107 -57 724
-550 781 -624 11 -15 21 -51 26 -100 8 -81 28 -142 57 -175 9 -10 42 -35 72
-55 l55 -36 -2 -170 c-1 -93 -3 -372 -4 -620 -1 -247 -4 -455 -7 -462 -4 -13
-58 -29 -82 -24 -28 5 -313 226 -350 271 -3 3 -70 62 -150 130 -80 69 -150
129 -156 135 -28 25 -90 80 -229 200 -82 71 -155 134 -161 140 -6 5 -39 35
-74 65 -167 144 -210 193 -210 238 0 49 -32 119 -74 163 l-45 46 48 104 c193
419 325 693 356 734 29 38 67 65 91 65 6 0 32 -11 58 -25z m-400 -1362 c51
-48 93 -85 287 -253 129 -112 496 -434 540 -474 25 -22 86 -77 135 -121 49
-44 107 -96 129 -117 l40 -36 -14 -44 c-19 -64 -49 -186 -58 -242 l-8 -49 -75
-23 c-41 -12 -282 -87 -534 -167 l-460 -144 -39 61 c-58 90 -118 143 -182 157
-76 17 -200 7 -256 -21 l-45 -22 -40 20 c-60 31 -332 233 -397 296 -57 55 -57
56 -50 98 5 24 8 95 8 158 -1 103 -4 125 -33 205 l-31 90 128 130 c404 411
431 435 465 435 12 0 41 -7 66 -16 89 -32 232 10 309 90 19 20 41 36 49 36 9
0 38 -21 66 -47z"/>
<path d="M4717 2583 c-3 -5 -4 -361 -3 -793 l1 -785 160 0 160 0 2 130 c2 72
5 139 8 151 2 12 37 53 77 93 70 70 73 72 88 52 8 -11 89 -112 180 -224 l164
-205 183 2 c100 1 185 5 189 9 4 4 -13 33 -38 64 -24 32 -98 127 -164 211 -65
84 -139 179 -162 210 -24 31 -54 68 -66 82 -12 14 -31 39 -43 56 l-22 30 197
202 c108 110 214 218 235 240 l38 39 -188 -1 c-105 -1 -195 -6 -204 -11 -9 -6
-86 -76 -170 -157 -221 -211 -283 -267 -288 -263 -4 4 -5 81 -12 638 l-3 237
-157 0 c-87 0 -160 -3 -162 -7z"/>
<path d="M955 2492 c-2 -2 126 -218 283 -480 l287 -475 0 -266 0 -266 160 0
160 0 5 265 5 265 75 125 c41 69 79 133 85 142 5 10 51 86 102 170 187 313
302 508 300 509 -12 8 -293 13 -305 5 -12 -7 -126 -180 -186 -281 -64 -108
-65 -110 -112 -185 -23 -36 -53 -84 -68 -107 -14 -24 -33 -43 -41 -43 -8 0
-25 15 -39 33 -23 29 -157 251 -305 502 l-53 91 -174 0 c-96 0 -177 -2 -179
-4z"/>
<path d="M4363 2149 c-58 -20 -98 -39 -176 -87 -31 -19 -60 -32 -64 -28 -4 4
-10 28 -13 54 -6 56 -12 58 -180 57 l-115 0 -3 -571 -2 -571 162 1 162 1 2
265 c2 253 6 338 20 398 29 117 130 192 266 196 43 1 72 7 77 14 13 21 5 260
-9 277 -16 19 -61 17 -127 -6z"/>
<path d="M2870 2150 c-184 -23 -344 -116 -428 -248 -74 -115 -104 -295 -75
-447 39 -211 209 -388 415 -431 76 -17 229 -21 333 -10 95 10 188 61 288 159
142 139 179 230 173 426 -2 96 -7 128 -30 185 -56 147 -163 258 -321 333 -74
35 -83 36 -189 38 -61 1 -136 -1 -166 -5z m225 -291 c100 -50 158 -154 159
-284 0 -58 -5 -81 -30 -136 -53 -112 -130 -169 -237 -177 -81 -6 -172 32 -228
97 -68 77 -74 93 -73 211 0 141 30 209 118 273 72 51 206 59 291 16z"/>
<path d="M2978 742 c-37 -39 -84 -135 -245 -496 -46 -104 -87 -202 -90 -217
-5 -25 -2 -29 16 -29 24 0 64 56 102 145 l24 55 100 0 c55 1 156 3 225 6 l125
5 34 -77 c19 -42 46 -90 59 -105 23 -29 62 -39 62 -18 0 25 -238 548 -297 653
-60 106 -78 118 -115 78z m109 -202 c57 -122 58 -124 84 -198 19 -54 20 -65 8
-73 -16 -10 -224 -12 -293 -3 -36 5 -46 11 -46 26 0 24 82 233 127 323 l35 69
21 -24 c11 -14 40 -68 64 -120z"/>
<path d="M3843 733 c-10 -51 -10 -625 0 -686 6 -36 12 -47 24 -45 29 5 34 58
35 368 0 363 -3 400 -37 400 -8 0 -17 -16 -22 -37z"/>
<path d="M3535 80 c-25 -40 3 -84 51 -78 39 4 52 30 31 62 -18 27 -69 37 -82
16z"/>
<path d="M4126 58 c-21 -30 -4 -58 35 -58 35 0 46 21 31 56 -14 30 -46 31 -66
2z"/>
</g>
</svg>
