<?xml version="1.0" encoding="UTF-8" standalone="no"?><!-- Generator: Gravit.io --><svg xmlns="http://www.w3.org/2000/svg" xmlns:xlink="http://www.w3.org/1999/xlink" style="isolation:isolate" viewBox="0 0 300 300" width="300pt" height="300pt"><defs><clipPath id="_clipPath_or3Tvt74pOrrHixdKA5nF74sPNsk2kgW"><rect x="0" y="0" width="300" height="300"/></clipPath></defs><g clip-path="url(#_clipPath_or3Tvt74pOrrHixdKA5nF74sPNsk2kgW)"><clipPath id="_clipPath_KwPSVeY3joGXqDMotMxt1hE6eL9FTasi"><rect x="0" y="0" width="300" height="300" transform="matrix(1,0,0,1,0,0)" fill="rgb(255,255,255)"/></clipPath><g clip-path="url(#_clipPath_KwPSVeY3joGXqDMotMxt1hE6eL9FTasi)"><g><g><path d=" M 112.869 299.7 C 112.869 299.5 116.137 292.204 120.097 283.409 C 125.542 271.415 127.82 267.517 129.107 267.517 C 130.493 267.517 132.572 271.015 137.324 281.51 C 145.74 300 145.74 300 144.255 300 C 143.562 300 141.978 298.001 140.79 295.502 L 138.612 290.905 L 128.909 291.205 L 119.305 291.505 L 117.325 295.802 C 116.236 298.101 114.85 300 114.157 300 C 113.463 300 112.869 299.8 112.869 299.7 Z  M 136.829 288.406 C 137.423 287.906 130.691 271.715 129.404 270.316 C 128.513 269.516 120.592 286.907 121.384 288.106 C 121.978 289.106 135.938 289.406 136.829 288.406 Z " fill="rgb(254,156,70)"/><path d=" M 151.483 298.001 C 151.483 296.502 151.978 296.002 153.265 296.202 C 154.156 296.402 154.948 297.202 154.948 298.001 C 154.948 298.801 154.156 299.6 153.265 299.8 C 151.978 300 151.483 299.5 151.483 298.001 Z " fill="rgb(254,156,70)"/><path d=" M 164.354 283.509 C 164.354 273.214 164.75 267.018 165.344 267.018 C 165.938 267.018 166.334 273.214 166.334 283.509 C 166.334 293.803 165.938 300 165.344 300 C 164.75 300 164.354 293.803 164.354 283.509 Z " fill="rgb(254,156,70)"/><path d=" M 176.433 298.301 C 176.631 297.301 177.423 296.502 178.215 296.502 C 179.007 296.502 179.799 297.301 179.997 298.301 C 180.195 299.5 179.7 300 178.215 300 C 176.73 300 176.235 299.5 176.433 298.301 Z " fill="rgb(57,57,57)"/><path d=" M 65.345 245.529 L 65.345 234.135 L 52.969 213.546 L 40.593 193.057 L 48.316 193.057 L 56.039 193.057 L 64.355 207.15 C 71.979 220.043 72.771 221.042 74.058 219.343 C 74.751 218.344 78.613 212.247 82.474 205.65 C 86.335 199.154 89.999 193.657 90.593 193.357 C 91.286 193.157 94.454 193.057 97.82 193.257 L 103.761 193.557 L 91.583 214.046 L 79.306 234.535 L 79.207 245.829 L 79.207 257.023 L 72.276 257.023 L 65.345 257.023 L 65.345 245.529 Z " fill="rgb(57,57,57)"/><path d=" M 116.434 255.424 C 106.83 251.926 100.79 242.93 100.889 232.236 C 100.889 217.344 110.988 207.849 127.127 207.549 C 133.958 207.349 135.542 207.749 140.196 210.248 C 151.285 216.345 155.839 227.639 152.374 240.532 C 150.988 245.829 142.572 254.124 137.027 255.824 C 131.681 257.423 121.285 257.223 116.434 255.424 Z  M 132.671 244.729 C 136.433 242.83 139.602 237.333 139.602 232.836 C 139.602 224.64 134.552 219.043 127.226 219.043 C 119.404 219.043 114.85 224.14 114.85 232.936 C 114.85 236.834 115.444 238.533 117.523 241.031 C 121.582 245.929 127.424 247.428 132.671 244.729 Z " fill="rgb(57,57,57)"/><path d=" M 163.364 232.536 L 163.364 208.049 L 169.799 208.049 C 176.037 208.049 176.235 208.149 176.235 210.548 C 176.235 213.546 176.631 213.646 179.997 211.247 C 183.066 209.049 188.512 207.05 191.185 207.05 C 192.868 207.05 193.066 207.849 193.066 213.546 L 193.066 220.043 L 189.601 220.043 C 184.65 220.043 180.789 222.341 178.809 226.439 C 177.621 229.038 177.225 232.936 177.225 243.43 L 177.225 257.023 L 170.294 257.023 L 163.364 257.023 L 163.364 232.536 Z " fill="rgb(57,57,57)"/><path d=" M 201.977 223.041 L 201.977 189.059 L 208.907 189.059 L 215.838 189.059 L 216.036 208.049 L 216.333 227.039 L 226.432 217.544 L 236.432 208.049 L 244.649 208.049 L 252.966 208.049 L 242.768 218.344 L 232.669 228.638 L 243.56 242.431 C 249.501 250.127 254.451 256.523 254.451 256.723 C 254.451 256.823 250.788 257.023 246.234 257.023 L 238.016 257.023 L 230.293 247.428 L 222.571 237.833 L 219.204 241.131 C 217.422 242.83 215.937 244.63 216.036 244.929 C 216.036 245.229 216.036 248.128 215.937 251.326 L 215.838 257.023 L 208.907 257.023 L 201.977 257.023 L 201.977 223.041 Z " fill="rgb(57,57,57)"/><path d=" M 234.155 172.568 C 232.669 171.169 231.679 168.97 231.679 167.371 C 231.679 164.972 229.699 162.673 220.788 154.278 L 209.997 143.983 L 207.026 145.582 C 203.561 147.381 195.838 147.581 192.769 145.982 C 191.581 145.382 189.007 143.384 187.126 141.485 L 183.66 138.186 L 165.839 143.683 C 135.443 153.178 137.423 152.379 134.552 156.576 C 131.384 161.274 128.315 162.973 122.968 163.073 C 114.652 163.073 109.503 157.876 109.701 149.28 C 109.701 144.583 108.513 143.284 95.246 134.088 C 89.503 130.091 88.81 129.791 86.83 131.09 C 80.494 135.088 78.019 135.588 67.029 134.788 C 64.454 134.588 63.365 135.788 55.346 147.581 C 48.613 157.476 46.732 160.974 47.128 162.773 C 48.613 168.37 45.148 172.468 39.207 172.268 C 30.891 172.068 30.495 159.375 38.613 157.576 C 41.781 156.876 44.257 153.878 54.356 138.686 L 59.603 130.89 L 57.029 126.093 C 55.643 123.494 54.158 118.997 53.761 116.098 L 52.969 110.901 L 35.643 102.905 C 18.812 95.209 18.317 95.009 15.742 96.509 C 8.812 100.606 0 96.209 0 88.613 C 0 81.616 3.267 78.218 10 78.118 C 15.049 78.118 19.703 81.317 19.901 85.115 C 20 86.214 20.099 87.613 20.198 88.313 C 20.297 89.412 52.672 105.104 54.851 105.104 C 55.346 105.104 57.227 103.405 59.009 101.306 C 64.751 94.51 75.246 92.611 83.563 96.808 L 86.434 98.308 L 98.711 85.914 L 111.087 73.421 L 109.998 69.523 C 109.305 66.924 109.305 64.326 109.8 62.327 C 110.493 60.128 110.394 58.929 109.503 58.229 C 108.81 57.629 98.909 52.932 87.523 47.834 L 66.831 38.439 L 64.256 40.438 C 59.999 43.537 53.662 43.737 49.504 40.938 C 36.633 32.143 48.613 12.453 62.375 19.65 C 65.642 21.349 68.316 25.746 68.316 29.444 C 68.316 30.844 68.91 32.343 69.603 32.942 C 70.197 33.442 80.791 38.439 92.969 44.037 C 112.869 53.132 115.543 54.031 118.216 53.232 C 119.899 52.632 122.374 52.132 123.562 51.932 C 125.542 51.632 127.226 48.834 134.354 33.142 C 142.077 16.151 142.671 14.452 141.78 11.354 C 139.404 3.658 145.542 -2.139 152.968 0.76 C 154.75 1.459 157.423 6.257 157.423 8.855 C 157.423 10.354 178.413 28.245 190.294 36.94 C 191.68 37.94 192.967 37.94 196.036 37.14 C 199.601 36.141 200.69 36.341 204.452 38.14 C 208.808 40.338 210.888 43.637 210.888 48.834 C 210.888 51.233 211.878 52.032 223.462 58.629 C 226.333 60.328 233.362 64.426 239.105 67.924 L 249.501 74.22 L 264.847 61.027 C 279.698 48.334 280.193 47.735 280.193 44.136 C 280.193 41.438 280.985 39.339 282.768 37.24 C 288.312 30.544 299.995 34.841 299.995 43.537 C 299.995 48.934 295.738 53.232 290.391 53.332 C 288.213 53.332 285.837 53.132 285.342 52.732 C 284.451 52.232 255.342 76.219 254.649 78.118 C 254.055 79.618 286.431 124.294 288.708 125.093 C 293.758 127.092 293.758 134.388 288.708 135.688 C 286.035 136.287 282.273 134.688 282.075 132.789 C 281.976 132.09 281.778 130.59 281.679 129.491 C 281.58 128.292 275.738 119.296 268.807 109.502 C 261.778 99.607 254.352 89.013 252.075 85.914 C 248.412 80.617 246.63 79.218 228.016 68.124 L 207.818 56.03 L 204.848 58.129 L 201.977 60.328 L 202.175 86.314 L 202.472 112.4 L 206.927 114.799 C 216.036 119.596 218.61 127.792 214.452 138.086 C 213.957 139.186 216.927 142.584 224.056 149.28 L 234.353 158.975 L 237.917 157.876 C 246.729 155.177 253.164 166.371 246.531 173.068 C 243.659 175.966 237.224 175.766 234.155 172.568 Z  M 167.819 137.187 L 182.67 132.489 L 183.165 127.992 C 183.462 125.593 184.353 122.595 184.947 121.295 C 185.641 120.096 185.938 118.597 185.641 118.097 C 185.244 117.497 175.146 108.402 163.067 97.808 C 150.988 87.313 139.602 77.319 137.82 75.72 L 134.552 72.821 L 132.374 74.82 C 127.721 79.118 121.978 80.317 117.622 78.018 C 115.741 77.019 114.355 78.118 103.167 89.612 L 90.791 102.305 L 92.573 107.303 C 94.157 111.8 94.256 117.997 92.969 122.994 C 92.672 123.794 96.731 127.492 103.266 132.289 C 113.463 139.785 114.058 140.085 116.038 138.586 C 118.612 136.787 125.542 136.587 129.107 138.186 C 130.493 138.886 132.77 141.085 134.057 143.184 L 136.532 146.982 L 144.75 144.383 C 149.304 142.984 159.7 139.785 167.819 137.187 Z  M 196.828 86.314 L 197.026 59.228 L 194.155 57.529 C 190.69 55.43 189.106 52.332 189.106 47.335 C 189.106 43.737 188.611 43.237 171.383 29.444 C 155.443 16.751 153.364 15.352 150.889 16.051 C 148.512 16.651 147.126 19.15 139.404 35.641 L 130.691 54.531 L 133.166 57.13 C 134.75 58.729 135.641 60.928 135.641 62.826 C 135.641 65.325 136.73 66.824 141.285 70.722 C 144.453 73.421 157.126 84.515 169.502 95.309 C 189.205 112.6 192.373 114.899 194.254 114.199 L 196.531 113.4 L 196.828 86.314 Z " fill="rgb(254,156,70)"/></g><g><path d=" M 113.364 298.301 C 113.661 297.301 116.929 289.905 120.592 281.71 C 126.137 269.516 127.523 267.018 129.107 267.217 C 130.592 267.417 132.869 271.515 138.315 283.409 C 142.275 292.204 145.542 299.5 145.542 299.7 C 145.542 299.8 144.849 300 144.057 300 C 143.265 300 141.78 298.001 140.691 295.502 L 138.711 290.905 L 129.008 291.205 L 119.305 291.505 L 117.424 295.802 C 116.335 298.101 114.85 300 114.058 300 C 113.166 300 112.869 299.4 113.364 298.301 Z  M 136.829 288.406 C 137.126 288.106 135.542 283.909 133.364 278.911 C 131.186 274.014 129.008 270.316 128.612 270.716 C 127.226 272.215 120.988 287.806 121.483 288.406 C 122.275 289.206 136.136 289.206 136.829 288.406 Z " fill="rgb(254,156,70)"/><path d=" M 151.087 298.501 C 150.493 296.802 152.77 295.402 154.453 296.502 C 154.948 296.802 155.443 297.801 155.443 298.601 C 155.443 300.5 151.879 300.4 151.087 298.501 Z " fill="rgb(254,156,70)"/><path d=" M 164.354 283.509 C 164.354 269.516 164.552 267.018 165.839 267.018 C 167.126 267.018 167.324 269.516 167.324 283.509 C 167.324 297.501 167.126 300 165.839 300 C 164.552 300 164.354 297.501 164.354 283.509 Z " fill="rgb(254,156,70)"/><path d=" M 234.155 172.568 C 232.669 171.169 231.679 168.97 231.679 167.371 C 231.679 164.972 229.699 162.673 220.788 154.278 L 209.997 143.983 L 207.026 145.582 C 203.561 147.381 195.838 147.581 192.769 145.982 C 191.581 145.382 189.007 143.384 187.126 141.485 L 183.66 138.186 L 165.839 143.683 C 135.443 153.178 137.423 152.379 134.552 156.576 C 131.384 161.274 128.315 162.973 122.968 163.073 C 114.652 163.073 109.503 157.876 109.701 149.28 C 109.701 144.583 108.513 143.284 95.246 134.088 C 89.503 130.091 88.81 129.791 86.83 131.09 C 80.494 135.088 78.019 135.588 67.029 134.788 C 64.454 134.588 63.365 135.788 55.346 147.581 C 48.613 157.476 46.732 160.974 47.128 162.773 C 48.613 168.37 45.148 172.468 39.207 172.268 C 30.891 172.068 30.495 159.375 38.613 157.576 C 41.781 156.876 44.257 153.878 54.356 138.686 L 59.603 130.89 L 57.029 126.093 C 55.643 123.494 54.158 118.997 53.761 116.098 L 52.969 110.901 L 35.643 102.905 C 18.812 95.209 18.317 95.009 15.742 96.509 C 8.812 100.606 0 96.209 0 88.613 C 0 81.616 3.267 78.218 10 78.118 C 15.049 78.118 19.703 81.317 19.901 85.115 C 20 86.214 20.099 87.613 20.198 88.313 C 20.297 89.412 52.672 105.104 54.851 105.104 C 55.346 105.104 57.227 103.405 59.009 101.306 C 64.751 94.51 75.246 92.611 83.563 96.808 L 86.434 98.308 L 98.711 85.914 L 111.087 73.421 L 109.998 69.523 C 109.305 66.924 109.305 64.326 109.8 62.327 C 110.493 60.128 110.394 58.929 109.503 58.229 C 108.81 57.629 98.909 52.932 87.523 47.834 L 66.831 38.439 L 64.256 40.438 C 59.999 43.537 53.662 43.737 49.504 40.938 C 36.633 32.143 48.613 12.453 62.375 19.65 C 65.642 21.349 68.316 25.746 68.316 29.444 C 68.316 30.844 68.91 32.343 69.603 32.942 C 70.197 33.442 80.791 38.439 92.969 44.037 C 112.869 53.132 115.543 54.031 118.216 53.232 C 119.899 52.632 122.374 52.132 123.562 51.932 C 125.542 51.632 127.226 48.834 134.354 33.142 C 142.077 16.151 142.671 14.452 141.78 11.354 C 139.404 3.658 145.542 -2.139 152.968 0.76 C 154.75 1.459 157.423 6.257 157.423 8.855 C 157.423 10.354 178.413 28.245 190.294 36.94 C 191.68 37.94 192.967 37.94 196.036 37.14 C 199.601 36.141 200.69 36.341 204.452 38.14 C 208.808 40.338 210.888 43.637 210.888 48.834 C 210.888 51.233 211.779 51.932 223.363 58.629 C 226.234 60.328 233.362 64.426 239.105 67.824 L 249.699 74.12 L 259.699 65.425 C 281.58 46.635 280.193 48.134 280.193 43.937 C 280.193 38.24 284.55 33.642 290.094 33.642 C 293.56 33.642 294.748 34.242 297.124 36.94 C 300.787 41.138 300.985 45.836 297.52 49.933 C 294.649 53.432 290.589 54.631 286.827 53.232 C 284.352 52.232 283.164 53.032 269.599 64.725 C 261.58 71.722 254.847 77.719 254.649 78.118 C 254.055 79.717 285.243 122.595 288.906 125.093 C 290.886 126.493 292.668 128.691 292.866 129.791 C 293.262 132.389 289.896 136.087 287.124 136.087 C 284.352 136.087 281.183 132.589 281.183 129.491 C 281.183 127.792 275.738 119.196 264.649 103.505 L 248.016 80.117 L 227.917 68.024 L 207.818 56.03 L 204.848 58.129 L 201.977 60.328 L 202.175 86.314 L 202.472 112.4 L 207.323 115.099 C 215.046 119.196 218.214 127.092 215.442 135.088 L 213.858 139.586 L 224.056 149.28 C 230.392 155.477 234.65 158.775 235.64 158.475 C 239.798 156.976 242.273 157.176 245.243 158.975 C 250.293 162.174 250.788 168.77 246.531 173.068 C 243.659 175.966 237.224 175.766 234.155 172.568 Z  M 167.819 137.187 L 182.67 132.489 L 183.165 127.992 C 183.462 125.593 184.353 122.595 184.947 121.295 C 185.641 120.096 185.938 118.597 185.641 118.097 C 185.244 117.497 175.146 108.402 163.067 97.808 C 150.988 87.313 139.602 77.319 137.82 75.72 L 134.552 72.821 L 132.374 74.82 C 127.721 79.118 121.978 80.317 117.622 78.018 C 115.741 77.019 114.355 78.118 103.167 89.612 L 90.791 102.305 L 92.573 107.303 C 94.157 111.8 94.256 117.997 92.969 122.994 C 92.672 123.794 96.731 127.492 103.266 132.289 C 113.463 139.785 114.058 140.085 116.038 138.586 C 118.612 136.787 125.542 136.587 129.107 138.186 C 130.493 138.886 132.77 141.085 134.057 143.184 L 136.532 146.982 L 144.75 144.383 C 149.304 142.984 159.7 139.785 167.819 137.187 Z  M 196.828 86.314 L 197.026 59.228 L 194.155 57.529 C 190.69 55.43 189.106 52.332 189.106 47.335 C 189.106 43.737 188.611 43.237 171.383 29.444 C 155.443 16.751 153.364 15.352 150.889 16.051 C 148.512 16.651 147.126 19.15 139.404 35.641 L 130.691 54.531 L 133.166 57.13 C 134.75 58.729 135.641 60.928 135.641 62.826 C 135.641 65.325 136.73 66.824 141.285 70.722 C 144.453 73.421 157.126 84.515 169.502 95.309 C 189.205 112.6 192.373 114.899 194.254 114.199 L 196.531 113.4 L 196.828 86.314 Z " fill="rgb(254,156,70)"/></g></g></g></g></svg>