<?xml version="1.0" encoding="UTF-8" standalone="no"?><!-- Generator: Gravit.io --><svg xmlns="http://www.w3.org/2000/svg" xmlns:xlink="http://www.w3.org/1999/xlink" style="isolation:isolate" viewBox="4 4.84 303.005 300.16" width="303.005pt" height="300.16pt"><defs><clipPath id="_clipPath_QPUb38TlmjV5PaV6gEEpkBolCWynw7Vs"><rect x="4" y="4.84" width="303.005" height="300.16"/></clipPath></defs><g clip-path="url(#_clipPath_QPUb38TlmjV5PaV6gEEpkBolCWynw7Vs)"><g><path d=" M 118 304.7 C 118 304.5 121.3 297.2 125.3 288.4 C 130.8 276.4 133.1 272.5 134.4 272.5 C 135.8 272.5 137.9 276 142.7 286.5 C 151.2 305 151.2 305 149.7 305 C 149 305 147.4 303 146.2 300.5 L 144 295.9 L 134.2 296.2 L 124.5 296.5 L 122.5 300.8 C 121.4 303.1 120 305 119.3 305 C 118.6 305 118 304.8 118 304.7 Z  M 142.2 293.4 C 142.8 292.9 136 276.7 134.7 275.3 C 133.8 274.5 125.8 291.9 126.6 293.1 C 127.2 294.1 141.3 294.4 142.2 293.4 Z " fill="rgb(254,156,70)"/><path d=" M 157 303 C 157 301.5 157.5 301 158.8 301.2 C 159.7 301.4 160.5 302.2 160.5 303 C 160.5 303.8 159.7 304.6 158.8 304.8 C 157.5 305 157 304.5 157 303 Z " fill="rgb(254,156,70)"/><path d=" M 170 288.5 C 170 278.2 170.4 272 171 272 C 171.6 272 172 278.2 172 288.5 C 172 298.8 171.6 305 171 305 C 170.4 305 170 298.8 170 288.5 Z " fill="rgb(254,156,70)"/><path d=" M 182.2 303.3 C 182.4 302.3 183.2 301.5 184 301.5 C 184.8 301.5 185.6 302.3 185.8 303.3 C 186 304.5 185.5 305 184 305 C 182.5 305 182 304.5 182.2 303.3 Z " fill="rgb(57,57,57)"/><path d=" M 70 250.5 L 70 239.1 L 57.5 218.5 L 45 198 L 52.8 198 L 60.6 198 L 69 212.1 C 76.7 225 77.5 226 78.8 224.3 C 79.5 223.3 83.4 217.2 87.3 210.6 C 91.2 204.1 94.9 198.6 95.5 198.3 C 96.2 198.1 99.4 198 102.8 198.2 L 108.8 198.5 L 96.5 219 L 84.1 239.5 L 84 250.8 L 84 262 L 77 262 L 70 262 L 70 250.5 Z " fill="rgb(57,57,57)"/><path d=" M 121.6 260.4 C 111.9 256.9 105.8 247.9 105.9 237.2 C 105.9 222.3 116.1 212.8 132.4 212.5 C 139.3 212.3 140.9 212.7 145.6 215.2 C 156.8 221.3 161.4 232.6 157.9 245.5 C 156.5 250.8 148 259.1 142.4 260.8 C 137 262.4 126.5 262.2 121.6 260.4 Z  M 138 249.7 C 141.8 247.8 145 242.3 145 237.8 C 145 229.6 139.9 224 132.5 224 C 124.6 224 120 229.1 120 237.9 C 120 241.8 120.6 243.5 122.7 246 C 126.8 250.9 132.7 252.4 138 249.7 Z " fill="rgb(57,57,57)"/><path d=" M 169 237.5 L 169 213 L 175.5 213 C 181.8 213 182 213.1 182 215.5 C 182 218.5 182.4 218.6 185.8 216.2 C 188.9 214 194.4 212 197.1 212 C 198.8 212 199 212.8 199 218.5 L 199 225 L 195.5 225 C 190.5 225 186.6 227.3 184.6 231.4 C 183.4 234 183 237.9 183 248.4 L 183 262 L 176 262 L 169 262 L 169 237.5 Z " fill="rgb(57,57,57)"/><path d=" M 208 228 L 208 194 L 215 194 L 222 194 L 222.2 213 L 222.5 232 L 232.7 222.5 L 242.8 213 L 251.1 213 L 259.5 213 L 249.2 223.3 L 239 233.6 L 250 247.4 C 256 255.1 261 261.5 261 261.7 C 261 261.8 257.3 262 252.7 262 L 244.4 262 L 236.6 252.4 L 228.8 242.8 L 225.4 246.1 C 223.6 247.8 222.1 249.6 222.2 249.9 C 222.2 250.2 222.2 253.1 222.1 256.3 L 222 262 L 215 262 L 208 262 L 208 228 Z " fill="rgb(57,57,57)"/><path d=" M 240.5 177.5 C 239 176.1 238 173.9 238 172.3 C 238 169.9 236 167.6 227 159.2 L 216.1 148.9 L 213.1 150.5 C 209.6 152.3 201.8 152.5 198.7 150.9 C 197.5 150.3 194.9 148.3 193 146.4 L 189.5 143.1 L 171.5 148.6 C 140.8 158.1 142.8 157.3 139.9 161.5 C 136.7 166.2 133.6 167.9 128.2 168 C 119.8 168 114.6 162.8 114.8 154.2 C 114.8 149.5 113.6 148.2 100.2 139 C 94.4 135 93.7 134.7 91.7 136 C 85.3 140 82.8 140.5 71.7 139.7 C 69.1 139.5 68 140.7 59.9 152.5 C 53.1 162.4 51.2 165.9 51.6 167.7 C 53.1 173.3 49.6 177.4 43.6 177.2 C 35.2 177 34.8 164.3 43 162.5 C 46.2 161.8 48.7 158.8 58.9 143.6 L 64.2 135.8 L 61.6 131 C 60.2 128.4 58.7 123.9 58.3 121 L 57.5 115.8 L 40 107.8 C 23 100.1 22.5 99.9 19.9 101.4 C 12.9 105.5 4 101.1 4 93.5 C 4 86.5 7.3 83.1 14.1 83 C 19.2 83 23.9 86.2 24.1 90 C 24.2 91.1 24.3 92.5 24.4 93.2 C 24.5 94.3 57.2 110 59.4 110 C 59.9 110 61.8 108.3 63.6 106.2 C 69.4 99.4 80 97.5 88.4 101.7 L 91.3 103.2 L 103.7 90.8 L 116.2 78.3 L 115.1 74.4 C 114.4 71.8 114.4 69.2 114.9 67.2 C 115.6 65 115.5 63.8 114.6 63.1 C 113.9 62.5 103.9 57.8 92.4 52.7 L 71.5 43.3 L 68.9 45.3 C 64.6 48.4 58.2 48.6 54 45.8 C 41 37 53.1 17.3 67 24.5 C 70.3 26.2 73 30.6 73 34.3 C 73 35.7 73.6 37.2 74.3 37.8 C 74.9 38.3 85.6 43.3 97.9 48.9 C 118 58 120.7 58.9 123.4 58.1 C 125.1 57.5 127.6 57 128.8 56.8 C 130.8 56.5 132.5 53.7 139.7 38 C 147.5 21 148.1 19.3 147.2 16.2 C 144.8 8.5 151 2.7 158.5 5.6 C 160.3 6.3 163 11.1 163 13.7 C 163 15.2 184.2 33.1 196.2 41.8 C 197.6 42.8 198.9 42.8 202 42 C 205.6 41 206.7 41.2 210.5 43 C 214.9 45.2 217 48.5 217 53.7 C 217 56.1 218 56.9 229.7 63.5 C 232.6 65.2 239.7 69.3 245.5 72.8 L 256 79.1 L 271.5 65.9 C 286.5 53.2 287 52.6 287 49 C 287 46.3 287.8 44.2 289.6 42.1 C 295.2 35.4 307 39.7 307 48.4 C 307 53.8 302.7 58.1 297.3 58.2 C 295.1 58.2 292.7 58 292.2 57.6 C 291.3 57.1 261.9 81.1 261.2 83 C 260.6 84.5 293.3 129.2 295.6 130 C 300.7 132 300.7 139.3 295.6 140.6 C 292.9 141.2 289.1 139.6 288.9 137.7 C 288.8 137 288.6 135.5 288.5 134.4 C 288.4 133.2 282.5 124.2 275.5 114.4 C 268.4 104.5 260.9 93.9 258.6 90.8 C 254.9 85.5 253.1 84.1 234.3 73 L 213.9 60.9 L 210.9 63 L 208 65.2 L 208.2 91.2 L 208.5 117.3 L 213 119.7 C 222.2 124.5 224.8 132.7 220.6 143 C 220.1 144.1 223.1 147.5 230.3 154.2 L 240.7 163.9 L 244.3 162.8 C 253.2 160.1 259.7 171.3 253 178 C 250.1 180.9 243.6 180.7 240.5 177.5 Z  M 173.5 142.1 L 188.5 137.4 L 189 132.9 C 189.3 130.5 190.2 127.5 190.8 126.2 C 191.5 125 191.8 123.5 191.5 123 C 191.1 122.4 180.9 113.3 168.7 102.7 C 156.5 92.2 145 82.2 143.2 80.6 L 139.9 77.7 L 137.7 79.7 C 133 84 127.2 85.2 122.8 82.9 C 120.9 81.9 119.5 83 108.2 94.5 L 95.7 107.2 L 97.5 112.2 C 99.1 116.7 99.2 122.9 97.9 127.9 C 97.6 128.7 101.7 132.4 108.3 137.2 C 118.6 144.7 119.2 145 121.2 143.5 C 123.8 141.7 130.8 141.5 134.4 143.1 C 135.8 143.8 138.1 146 139.4 148.1 L 141.9 151.9 L 150.2 149.3 C 154.8 147.9 165.3 144.7 173.5 142.1 Z  M 202.8 91.2 L 203 64.1 L 200.1 62.4 C 196.6 60.3 195 57.2 195 52.2 C 195 48.6 194.5 48.1 177.1 34.3 C 161 21.6 158.9 20.2 156.4 20.9 C 154 21.5 152.6 24 144.8 40.5 L 136 59.4 L 138.5 62 C 140.1 63.6 141 65.8 141 67.7 C 141 70.2 142.1 71.7 146.7 75.6 C 149.9 78.3 162.7 89.4 175.2 100.2 C 195.1 117.5 198.3 119.8 200.2 119.1 L 202.5 118.3 L 202.8 91.2 Z " fill="rgb(254,156,70)"/></g><g><path d=" M 118.5 303.3 C 118.8 302.3 122.1 294.9 125.8 286.7 C 131.4 274.5 132.8 272 134.4 272.2 C 135.9 272.4 138.2 276.5 143.7 288.4 C 147.7 297.2 151 304.5 151 304.7 C 151 304.8 150.3 305 149.5 305 C 148.7 305 147.2 303 146.1 300.5 L 144.1 295.9 L 134.3 296.2 L 124.5 296.5 L 122.6 300.8 C 121.5 303.1 120 305 119.2 305 C 118.3 305 118 304.4 118.5 303.3 Z  M 142.2 293.4 C 142.5 293.1 140.9 288.9 138.7 283.9 C 136.5 279 134.3 275.3 133.9 275.7 C 132.5 277.2 126.2 292.8 126.7 293.4 C 127.5 294.2 141.5 294.2 142.2 293.4 Z " fill="rgb(254,156,70)"/><path d=" M 156.6 303.5 C 156 301.8 158.3 300.4 160 301.5 C 160.5 301.8 161 302.8 161 303.6 C 161 305.5 157.4 305.4 156.6 303.5 Z " fill="rgb(254,156,70)"/><path d=" M 170 288.5 C 170 274.5 170.2 272 171.5 272 C 172.8 272 173 274.5 173 288.5 C 173 302.5 172.8 305 171.5 305 C 170.2 305 170 302.5 170 288.5 Z " fill="rgb(254,156,70)"/><path d=" M 240.5 177.5 C 239 176.1 238 173.9 238 172.3 C 238 169.9 236 167.6 227 159.2 L 216.1 148.9 L 213.1 150.5 C 209.6 152.3 201.8 152.5 198.7 150.9 C 197.5 150.3 194.9 148.3 193 146.4 L 189.5 143.1 L 171.5 148.6 C 140.8 158.1 142.8 157.3 139.9 161.5 C 136.7 166.2 133.6 167.9 128.2 168 C 119.8 168 114.6 162.8 114.8 154.2 C 114.8 149.5 113.6 148.2 100.2 139 C 94.4 135 93.7 134.7 91.7 136 C 85.3 140 82.8 140.5 71.7 139.7 C 69.1 139.5 68 140.7 59.9 152.5 C 53.1 162.4 51.2 165.9 51.6 167.7 C 53.1 173.3 49.6 177.4 43.6 177.2 C 35.2 177 34.8 164.3 43 162.5 C 46.2 161.8 48.7 158.8 58.9 143.6 L 64.2 135.8 L 61.6 131 C 60.2 128.4 58.7 123.9 58.3 121 L 57.5 115.8 L 40 107.8 C 23 100.1 22.5 99.9 19.9 101.4 C 12.9 105.5 4 101.1 4 93.5 C 4 86.5 7.3 83.1 14.1 83 C 19.2 83 23.9 86.2 24.1 90 C 24.2 91.1 24.3 92.5 24.4 93.2 C 24.5 94.3 57.2 110 59.4 110 C 59.9 110 61.8 108.3 63.6 106.2 C 69.4 99.4 80 97.5 88.4 101.7 L 91.3 103.2 L 103.7 90.8 L 116.2 78.3 L 115.1 74.4 C 114.4 71.8 114.4 69.2 114.9 67.2 C 115.6 65 115.5 63.8 114.6 63.1 C 113.9 62.5 103.9 57.8 92.4 52.7 L 71.5 43.3 L 68.9 45.3 C 64.6 48.4 58.2 48.6 54 45.8 C 41 37 53.1 17.3 67 24.5 C 70.3 26.2 73 30.6 73 34.3 C 73 35.7 73.6 37.2 74.3 37.8 C 74.9 38.3 85.6 43.3 97.9 48.9 C 118 58 120.7 58.9 123.4 58.1 C 125.1 57.5 127.6 57 128.8 56.8 C 130.8 56.5 132.5 53.7 139.7 38 C 147.5 21 148.1 19.3 147.2 16.2 C 144.8 8.5 151 2.7 158.5 5.6 C 160.3 6.3 163 11.1 163 13.7 C 163 15.2 184.2 33.1 196.2 41.8 C 197.6 42.8 198.9 42.8 202 42 C 205.6 41 206.7 41.2 210.5 43 C 214.9 45.2 217 48.5 217 53.7 C 217 56.1 217.9 56.8 229.6 63.5 C 232.5 65.2 239.7 69.3 245.5 72.7 L 256.2 79 L 266.3 70.3 C 288.4 51.5 287 53 287 48.8 C 287 43.1 291.4 38.5 297 38.5 C 300.5 38.5 301.7 39.1 304.1 41.8 C 307.8 46 308 50.7 304.5 54.8 C 301.6 58.3 297.5 59.5 293.7 58.1 C 291.2 57.1 290 57.9 276.3 69.6 C 268.2 76.6 261.4 82.6 261.2 83 C 260.6 84.6 292.1 127.5 295.8 130 C 297.8 131.4 299.6 133.6 299.8 134.7 C 300.2 137.3 296.8 141 294 141 C 291.2 141 288 137.5 288 134.4 C 288 132.7 282.5 124.1 271.3 108.4 L 254.5 85 L 234.2 72.9 L 213.9 60.9 L 210.9 63 L 208 65.2 L 208.2 91.2 L 208.5 117.3 L 213.4 120 C 221.2 124.1 224.4 132 221.6 140 L 220 144.5 L 230.3 154.2 C 236.7 160.4 241 163.7 242 163.4 C 246.2 161.9 248.7 162.1 251.7 163.9 C 256.8 167.1 257.3 173.7 253 178 C 250.1 180.9 243.6 180.7 240.5 177.5 Z  M 173.5 142.1 L 188.5 137.4 L 189 132.9 C 189.3 130.5 190.2 127.5 190.8 126.2 C 191.5 125 191.8 123.5 191.5 123 C 191.1 122.4 180.9 113.3 168.7 102.7 C 156.5 92.2 145 82.2 143.2 80.6 L 139.9 77.7 L 137.7 79.7 C 133 84 127.2 85.2 122.8 82.9 C 120.9 81.9 119.5 83 108.2 94.5 L 95.7 107.2 L 97.5 112.2 C 99.1 116.7 99.2 122.9 97.9 127.9 C 97.6 128.7 101.7 132.4 108.3 137.2 C 118.6 144.7 119.2 145 121.2 143.5 C 123.8 141.7 130.8 141.5 134.4 143.1 C 135.8 143.8 138.1 146 139.4 148.1 L 141.9 151.9 L 150.2 149.3 C 154.8 147.9 165.3 144.7 173.5 142.1 Z  M 202.8 91.2 L 203 64.1 L 200.1 62.4 C 196.6 60.3 195 57.2 195 52.2 C 195 48.6 194.5 48.1 177.1 34.3 C 161 21.6 158.9 20.2 156.4 20.9 C 154 21.5 152.6 24 144.8 40.5 L 136 59.4 L 138.5 62 C 140.1 63.6 141 65.8 141 67.7 C 141 70.2 142.1 71.7 146.7 75.6 C 149.9 78.3 162.7 89.4 175.2 100.2 C 195.1 117.5 198.3 119.8 200.2 119.1 L 202.5 118.3 L 202.8 91.2 Z " fill="rgb(254,156,70)"/></g></g></svg>